<svg width="24" height="24" viewBox="0 0 24 24" fill="none" xmlns="http://www.w3.org/2000/svg">
<path d="M17 8H18C18.7956 8 19.5587 8.31607 20.1213 8.87868C20.6839 9.44129 21 10.2044 21 11C21 11.7956 20.6839 12.5587 20.1213 13.1213C19.5587 13.6839 18.7956 14 18 14H17" stroke="black" stroke-width="2" stroke-linecap="round" stroke-linejoin="round"/>
<path d="M3 8H17V16C17 17.0609 16.5786 18.0783 15.8284 18.8284C15.0783 19.5786 14.0609 20 13 20H7C5.93913 20 4.92172 19.5786 4.17157 18.8284C3.42143 18.0783 3 17.0609 3 16V8Z" stroke="black" stroke-width="2" stroke-linecap="round" stroke-linejoin="round"/>
<path d="M6 2V5" stroke="black" stroke-width="2" stroke-linecap="round" stroke-linejoin="round"/>
<path d="M10 2V5" stroke="black" stroke-width="2" stroke-linecap="round" stroke-linejoin="round"/>
<path d="M14 2V5" stroke="black" stroke-width="2" stroke-linecap="round" stroke-linejoin="round"/>
</svg>
